<?xml version="1.0" encoding="utf-8"?>
<!-- Generator: Adobe Illustrator 16.0.0, SVG Export Plug-In . SVG Version: 6.00 Build 0)  -->
<!DOCTYPE svg PUBLIC "-//W3C//DTD SVG 1.0//EN" "http://www.w3.org/TR/2001/REC-SVG-20010904/DTD/svg10.dtd">
<svg version="1.0" id="Layer_1" xmlns="http://www.w3.org/2000/svg" xmlns:xlink="http://www.w3.org/1999/xlink" x="0px" y="0px"
	 width="708.66px" height="708.66px" viewBox="0 0 708.66 708.66" enable-background="new 0 0 708.66 708.66" xml:space="preserve">
<g>
	<path fill="none" stroke="#373431" stroke-width="12" stroke-linecap="round" stroke-linejoin="round" stroke-miterlimit="10" d="
		M477.315,321.402V300.15c0-67.92-55.053-122.973-122.996-122.973c-67.92,0-122.973,55.053-122.973,122.973v21.252h-0.025
		c-16.039,5.688-27.588,20.837-27.588,38.854c0,35.254,17.896,63.757,40.162,64.746c20.507,63.183,62.206,106.505,110.424,106.505
		c48.217,0,89.916-43.322,110.447-106.505c22.266-0.952,40.162-29.492,40.162-64.746
		C504.928,342.239,493.38,327.091,477.315,321.402z"/>
	<path fill="none" stroke="#373431" stroke-width="12" stroke-linecap="round" stroke-linejoin="round" stroke-miterlimit="10" d="
		M393.918,295.976c0-44.641-14.917-85.681-39.843-118.786C379.001,210.295,393.918,251.334,393.918,295.976z"/>
	<path fill="none" stroke="#373431" stroke-width="12" stroke-linecap="round" stroke-linejoin="round" stroke-miterlimit="10" d="
		M477.315,321.402v30.261c-32.885-6.519-63.28-25.622-83.373-55.725l0,0l0,0c-44.922,44.897-103.734,67.383-162.621,67.383v-41.919
		v41.919c58.887,0,117.699-22.485,162.621-67.383l0,0l0,0c20.093,30.103,50.488,49.206,83.373,55.725V321.402z"/>
	<path fill="none" stroke="#373431" stroke-width="12" stroke-linecap="round" stroke-linejoin="round" stroke-miterlimit="10" d="
		M243.87,425.003c0,52.282-15.063,100.914-40.723,142.234c38.916-2.758,77.1-18.859,106.86-48.607
		c-29.761,29.748-67.944,45.85-106.86,48.607C228.807,525.917,243.87,477.285,243.87,425.003z"/>
	<path fill="none" stroke="#373431" stroke-width="12" stroke-linecap="round" stroke-linejoin="round" stroke-miterlimit="10" d="
		M398.63,518.63c29.785,29.748,67.943,45.85,106.885,48.607c-25.684-41.32-40.748-89.952-40.748-142.234
		c0,52.282,15.064,100.914,40.748,142.234C466.573,564.479,428.415,548.378,398.63,518.63z"/>
	<path fill="none" stroke="#373431" stroke-width="12" stroke-linecap="round" stroke-linejoin="round" stroke-miterlimit="10" d="
		M199.584,612.721c45.239,27.161,98.168,42.798,154.759,42.798c56.567,0,109.473-15.625,154.711-42.773l-77.611-32.165
		c-6.494-2.686-12.378-6.628-17.261-11.511c-9.619-9.596-15.576-22.925-15.576-37.598V518.63
		c-13.745,8.252-28.661,12.878-44.286,12.878s-30.542-4.626-44.312-12.878l0.024,12.842c0,14.673-5.933,28.002-15.552,37.598
		c-4.907,4.883-10.767,8.825-17.261,11.511L199.584,612.721z"/>
	<path fill="none" stroke="#373431" stroke-width="12" stroke-linecap="round" stroke-linejoin="round" stroke-miterlimit="10" d="
		M655.512,354.324c0,166.344-134.862,301.194-301.17,301.194c-166.355,0-301.193-134.851-301.193-301.194
		S187.987,53.143,354.343,53.143C520.65,53.143,655.512,187.98,655.512,354.324z"/>
</g>
</svg>
